<?xml version="1.0" encoding="UTF-8" standalone="no"?>
<!DOCTYPE svg PUBLIC "-//W3C//DTD SVG 1.1//EN" "http://www.w3.org/Graphics/SVG/1.1/DTD/svg11.dtd">
<svg xmlns="http://www.w3.org/2000/svg" version="1.1" viewBox="0 0 55 35" width="55.0pt" height="35.0pt">
<path d="M 0.00 0.00 L 22.76 0.00 C 16.09 0.36 10.16 4.34 7.48 10.47 C 4.82 16.24 6.77 22.77 5.61 28.76 C 4.96 31.69 2.93 33.40 0.56 35.00 L 0.00 35.00 L 0.00 0.00 Z" fill="rgba(0,0,0,0)" />
<path d="M 22.76 0.00 L 38.28 0.00 C 47.33 0.48 54.48 7.61 55.00 16.66 L 55.00 18.38 C 54.46 27.42 47.29 34.55 38.24 35.00 L 22.70 35.00 C 18.79 34.79 15.66 33.32 12.44 31.23 C 9.74 33.22 7.38 34.64 3.96 35.00 L 0.56 35.00 C 2.93 33.40 4.96 31.69 5.61 28.76 C 6.77 22.77 4.82 16.24 7.48 10.47 C 10.16 4.34 16.09 0.36 22.76 0.00 Z" fill="#000000" />
<path d="M 38.28 0.00 L 55.00 0.00 L 55.00 16.66 C 54.48 7.61 47.33 0.48 38.28 0.00 Z" fill="rgba(0,0,0,0)" />
<path d="M 55.00 18.38 L 55.00 35.00 L 38.24 35.00 C 47.29 34.55 54.46 27.42 55.00 18.38 Z" fill="rgba(0,0,0,0)" />
<path d="M 12.44 31.23 C 15.66 33.32 18.79 34.79 22.70 35.00 L 3.96 35.00 C 7.38 34.64 9.74 33.22 12.44 31.23 Z" fill="rgba(0,0,0,0)" />
</svg>