<?xml version="1.0" encoding="UTF-8" standalone="no"?>
<!DOCTYPE svg PUBLIC "-//W3C//DTD SVG 1.1//EN" "http://www.w3.org/Graphics/SVG/1.1/DTD/svg11.dtd">
<svg xmlns="http://www.w3.org/2000/svg" version="1.1" viewBox="0 0 55 35" width="55.0pt" height="35.0pt">
<path d="M 0.00 0.00 L 22.75 0.00 C 13.28 0.42 5.67 8.52 6.02 18.02 C 6.22 27.11 13.64 34.56 22.71 35.00 L 0.00 35.00 L 0.00 0.00 Z" fill="rgba(0,0,0,0)" />
<path d="M 22.75 0.00 L 38.29 0.00 C 47.35 0.50 54.46 7.59 55.00 16.65 L 55.00 18.39 C 54.43 27.44 47.31 34.52 38.25 35.00 L 22.71 35.00 C 13.64 34.56 6.22 27.11 6.02 18.02 C 5.67 8.52 13.28 0.42 22.75 0.00 Z" fill="#000000" />
<path d="M 38.29 0.00 L 55.00 0.00 L 55.00 16.65 C 54.46 7.59 47.35 0.50 38.29 0.00 Z" fill="rgba(0,0,0,0)" />
<path d="M 55.00 18.39 L 55.00 35.00 L 38.25 35.00 C 47.31 34.52 54.43 27.44 55.00 18.39 Z" fill="rgba(0,0,0,0)" />
</svg>