<?xml version="1.0" encoding="UTF-8" standalone="no"?>
<!DOCTYPE svg PUBLIC "-//W3C//DTD SVG 1.1//EN" "http://www.w3.org/Graphics/SVG/1.1/DTD/svg11.dtd">
<svg xmlns="http://www.w3.org/2000/svg" version="1.1" viewBox="0 0 55 35" width="55.0pt" height="35.0pt">
<path d="M 0.00 0.00 L 16.62 0.00 C 7.65 0.56 0.65 7.52 0.00 16.48 L 0.00 0.00 Z" fill="rgba(0,0,0,0)" />
<path d="M 16.62 0.00 L 32.46 0.00 C 39.05 0.48 44.86 4.40 47.52 10.48 C 50.17 16.21 48.23 22.83 49.40 28.78 C 50.05 31.70 52.08 33.39 54.44 35.00 L 50.93 35.00 C 47.59 34.61 45.22 33.18 42.56 31.24 C 39.37 33.29 36.25 34.76 32.39 35.00 L 16.54 35.00 C 7.57 34.39 0.59 27.40 0.00 18.43 L 0.00 16.48 C 0.65 7.52 7.65 0.56 16.62 0.00 Z" fill="#000000" />
<path d="M 32.46 0.00 L 55.00 0.00 L 55.00 35.00 L 54.44 35.00 C 52.08 33.39 50.05 31.70 49.40 28.78 C 48.23 22.83 50.17 16.21 47.52 10.48 C 44.86 4.40 39.05 0.48 32.46 0.00 Z" fill="rgba(0,0,0,0)" />
<path d="M 0.00 18.43 C 0.59 27.40 7.57 34.39 16.54 35.00 L 0.00 35.00 L 0.00 18.43 Z" fill="rgba(0,0,0,0)" />
<path d="M 42.56 31.24 C 45.22 33.18 47.59 34.61 50.93 35.00 L 32.39 35.00 C 36.25 34.76 39.37 33.29 42.56 31.24 Z" fill="rgba(0,0,0,0)" />
</svg>