<?xml version="1.0" encoding="UTF-8" standalone="no"?>
<!DOCTYPE svg PUBLIC "-//W3C//DTD SVG 1.1//EN" "http://www.w3.org/Graphics/SVG/1.1/DTD/svg11.dtd">
<svg xmlns="http://www.w3.org/2000/svg" version="1.1" viewBox="0 0 55 35" width="55.0pt" height="35.0pt">
<path d="M 0.00 0.00 L 16.71 0.00 C 7.67 0.51 0.59 7.55 0.00 16.58 L 0.00 0.00 Z" fill="rgba(0,0,0,0)" />
<path d="M 16.71 0.00 L 32.35 0.00 C 41.78 0.49 49.33 8.55 48.98 18.02 C 48.78 27.11 41.36 34.56 32.29 35.00 L 16.65 35.00 C 7.62 34.46 0.55 27.40 0.00 18.37 L 0.00 16.58 C 0.59 7.55 7.67 0.51 16.71 0.00 Z" fill="#000000" />
<path d="M 32.35 0.00 L 55.00 0.00 L 55.00 35.00 L 32.29 35.00 C 41.36 34.56 48.78 27.11 48.98 18.02 C 49.33 8.55 41.78 0.49 32.35 0.00 Z" fill="rgba(0,0,0,0)" />
<path d="M 0.00 18.37 C 0.55 27.40 7.62 34.46 16.65 35.00 L 0.00 35.00 L 0.00 18.37 Z" fill="rgba(0,0,0,0)" />
</svg>