<svg id="hpIconSymbol" viewBox="4.94140625 4.640625 40.283203125 40.6484375">
    <g xmlns="http://www.w3.org/2000/svg" fill-rule="nonzero" transform="scale(1,-1) translate(0,-49.951171875)">
        <path fill-opacity="1.0" d="     M 20.689453125,13.79296875     C 24.53515625,13.79296875 28.05859375,15.189453125 30.787109375,17.48828125     L 43.205078125,5.005859375     C 43.3984375,4.833984375 43.677734375,4.662109375 44.0,4.662109375     C 44.794921875,4.662109375 45.224609375,5.263671875 45.224609375,5.88671875     C 45.224609375,6.166015625 45.1171875,6.4453125 44.880859375,6.681640625     L 32.462890625,19.12109375     C 34.93359375,21.892578125 36.458984375,25.56640625 36.458984375,29.541015625     C 36.458984375,38.19921875 29.34765625,45.310546875 20.689453125,45.310546875     C 12.03125,45.310546875 4.94140625,38.19921875 4.94140625,29.541015625     C 4.94140625,20.8828125 12.03125,13.79296875 20.689453125,13.79296875     Z     M 20.689453125,14.845703125     C 12.611328125,14.845703125 5.994140625,21.462890625 5.994140625,29.541015625     C 5.994140625,37.619140625 12.611328125,44.2578125 20.689453125,44.2578125     C 28.767578125,44.2578125 35.40625,37.619140625 35.40625,29.541015625     C 35.40625,21.462890625 28.767578125,14.845703125 20.689453125,14.845703125     Z "></path>
    </g>
</svg>